<svg width="25" height="20" viewBox="0 0 25 20" fill="none" xmlns="http://www.w3.org/2000/svg">
<path d="M21.3497 19.2692C21.1695 19.2693 20.9951 19.1911 20.858 19.0485C20.7209 18.9059 20.63 18.7084 20.6017 18.4915C20.5733 18.2746 20.6094 18.0524 20.7035 17.865C20.7975 17.6776 20.9433 17.5373 21.1146 17.4692C22.555 16.8946 23.4854 15.3561 23.4854 13.5492C23.4854 11.2609 21.9581 9.39922 20.0807 9.39922C19.9502 9.39922 19.8099 9.41172 19.6391 9.43873L18.8988 9.55573L18.7925 8.65475C18.3375 4.79182 15.5765 1.87868 12.3699 1.87868C9.71904 1.87868 7.35908 3.81276 6.3583 6.80636L6.16982 7.36956L5.67119 7.38063C3.3793 7.43193 1.51475 9.74533 1.51475 12.5372C1.51475 14.5753 2.48564 16.4339 3.98809 17.2721C4.17068 17.3739 4.3126 17.56 4.38263 17.7894C4.45265 18.0187 4.44504 18.2726 4.36147 18.4952C4.27791 18.7177 4.12523 18.8907 3.93702 18.976C3.74882 19.0614 3.54051 19.0521 3.35791 18.9502C1.31797 17.8125 0 15.2953 0 12.5373C0 8.94825 2.26895 5.94179 5.15088 5.57247C6.47881 2.18837 9.26191 0.0332642 12.3696 0.0332642C16.0894 0.0332642 19.3229 3.2117 20.1613 7.55476C22.8367 7.6076 25 10.2764 25 13.5495C25 16.1286 23.6277 18.4086 21.5856 19.2232C21.5075 19.2542 21.4279 19.2692 21.3497 19.2692Z" fill="#0071CE"/>
<path d="M9.7673 19.6684L9.76691 19.6682L9.76623 19.668H9.76603L9.76584 19.6677L9.76564 19.6675C9.76564 19.6675 9.76545 19.6675 9.76545 19.6673H9.76525L9.76506 19.667C9.76525 19.6668 9.76486 19.6668 9.76486 19.6668L9.76467 19.6665H9.76447L9.76428 19.6663L9.76408 19.6661L9.76349 19.6658L9.7633 19.6656L9.7631 19.6654L9.76291 19.6651L9.76232 19.6649C9.76213 19.6651 9.76213 19.6646 9.76193 19.6646L9.76174 19.6644L9.76135 19.6642L9.76115 19.6639C9.76096 19.6637 9.76056 19.6637 9.76037 19.6637L9.75959 19.6634L9.7592 19.6632H9.759C9.75881 19.663 9.75861 19.663 9.75832 19.663C9.75812 19.6627 9.75773 19.6627 9.75773 19.6627H9.75754L9.75715 19.6625C9.75695 19.6625 9.75695 19.6623 9.75695 19.6623H9.75676C9.74482 19.6571 9.73231 19.654 9.71965 19.6533H9.71847H9.71789L9.71769 19.6531H9.71564H9.71584H9.71428C9.38703 19.6531 9.11926 19.3284 9.1173 18.9305V10.8217H9.62717C9.7048 10.8257 9.75773 10.7529 9.75773 10.6655C9.75773 10.6002 9.72492 10.5443 9.67834 10.521L7.23185 8.46303C7.21044 8.44505 7.18505 8.43542 7.15905 8.43542C7.13305 8.43542 7.10766 8.44505 7.08625 8.46303L4.62062 10.5371C4.59826 10.5561 4.58144 10.5833 4.5726 10.6147C4.56377 10.6461 4.56337 10.6802 4.57148 10.7119C4.57959 10.7436 4.59577 10.7714 4.61769 10.7911C4.63961 10.8109 4.66612 10.8216 4.69338 10.8218H5.20314L5.20363 18.9327C5.20617 19.4934 5.5757 19.951 6.04592 19.9655C6.05129 19.9662 6.05637 19.9667 6.06174 19.9667H9.71623C9.74982 19.966 9.78029 19.9496 9.80285 19.9233L9.80305 19.923L9.80402 19.9218C9.80422 19.9216 9.80441 19.9216 9.80461 19.9211L9.8048 19.9209L9.805 19.9207L9.80519 19.9204L9.80539 19.9202L9.80558 19.9199L9.80578 19.9197C9.80617 19.9195 9.80597 19.9195 9.80617 19.9192L9.80637 19.919L9.80656 19.9187L9.80676 19.9185C9.82892 19.8905 9.84279 19.8527 9.84289 19.8108V19.8084C9.84238 19.7788 9.83501 19.7499 9.82164 19.7252C9.80827 19.7004 9.78943 19.6807 9.7673 19.6684Z" fill="#DC8327"/>
<path d="M15.0513 19.6685L15.0509 19.6682L15.0503 19.668H15.05L15.0498 19.6677L15.0496 19.6675H15.0494L15.0492 19.6673L15.049 19.667C15.0492 19.6668 15.0488 19.6668 15.0486 19.6668L15.0484 19.6665H15.0482C15.048 19.6665 15.048 19.6663 15.048 19.6663C15.0476 19.6665 15.0476 19.6661 15.0476 19.6661L15.0473 19.6658L15.0471 19.6656H15.0469L15.0467 19.6654L15.0465 19.6651L15.0461 19.6649C15.0459 19.6651 15.0459 19.6646 15.0455 19.6646L15.0453 19.6644L15.0451 19.6642L15.0447 19.6639C15.0445 19.6637 15.0441 19.6637 15.0439 19.6637L15.0432 19.6635L15.0428 19.6632L15.0424 19.663L15.042 19.6627L15.0415 19.6625C15.0409 19.6625 15.0413 19.6625 15.0411 19.6623L15.0407 19.662L15.0405 19.6618H15.0403C15.0284 19.6566 15.0159 19.6536 15.0032 19.6529H15.0017L15.0015 19.6526H14.9975C14.6703 19.6526 14.4026 19.3279 14.4007 18.93V12.6374H14.9103C14.9406 12.6392 14.9703 12.6278 14.9943 12.6053C15.0183 12.5829 15.035 12.5508 15.0414 12.5148C15.0478 12.4787 15.0436 12.4411 15.0294 12.4085C15.0153 12.376 14.9921 12.3505 14.9641 12.3368L12.5175 10.2789C12.4961 10.2609 12.4706 10.2513 12.4446 10.2513C12.4186 10.2513 12.3932 10.2609 12.3718 10.2789L9.90712 12.3527C9.88476 12.3717 9.86794 12.3989 9.8591 12.4304C9.85026 12.4618 9.84987 12.4958 9.85798 12.5276C9.86608 12.5593 9.88227 12.587 9.90419 12.6068C9.9261 12.6265 9.95262 12.6373 9.97988 12.6374H10.4874L10.4878 18.9324C10.4899 19.4934 10.8601 19.9512 11.3306 19.9655C11.3356 19.9662 11.3407 19.9665 11.3459 19.9665H15.0005C15.0341 19.9658 15.0644 19.9493 15.087 19.923L15.0872 19.9228C15.0876 19.9223 15.0884 19.9218 15.0882 19.9216C15.0884 19.9214 15.0886 19.9214 15.0888 19.9209L15.089 19.9207L15.0892 19.9204L15.0893 19.9202C15.0893 19.9202 15.0895 19.9202 15.0895 19.9199L15.0897 19.9197C15.0899 19.9197 15.0899 19.9195 15.0899 19.9195C15.0905 19.9192 15.0903 19.9192 15.0903 19.919L15.0905 19.9188L15.0907 19.9185L15.0909 19.9183C15.1131 19.8903 15.1269 19.8525 15.127 19.8106V19.8082C15.1264 19.7786 15.119 19.7498 15.1056 19.7251C15.0922 19.7004 15.0734 19.6808 15.0513 19.6685Z" fill="#F4B21B"/>
<path d="M20.349 19.6685L20.3487 19.6682L20.3481 19.668H20.3479L20.3477 19.6678L20.3475 19.6675C20.3473 19.6675 20.3473 19.6675 20.3473 19.6673H20.3471L20.3469 19.667L20.3467 19.6668C20.3467 19.6668 20.3465 19.6668 20.3465 19.6666H20.3463L20.3461 19.6663C20.3459 19.6666 20.3459 19.6661 20.3457 19.6661C20.3459 19.6659 20.3455 19.6659 20.3453 19.6659L20.3451 19.6656H20.3449L20.3447 19.6654L20.3445 19.6651L20.3442 19.6649C20.344 19.6651 20.344 19.6647 20.3436 19.6647L20.3434 19.6644C20.3436 19.6642 20.3432 19.6642 20.343 19.6642C20.343 19.6642 20.3428 19.6642 20.3428 19.664C20.3426 19.6637 20.3422 19.6637 20.342 19.6637L20.3411 19.6635L20.3407 19.6632L20.3404 19.663L20.34 19.6628L20.3396 19.6625C20.339 19.6625 20.339 19.6625 20.3392 19.6623C20.339 19.6623 20.339 19.662 20.339 19.662L20.3386 19.6618H20.3384C20.3265 19.6566 20.314 19.6536 20.3013 19.6529H20.2994L20.299 19.6526H20.2969H20.2955H20.2963H20.2961C19.969 19.6526 19.7013 19.328 19.6992 18.9301V14.4525H20.2104C20.2824 14.4505 20.3409 14.384 20.3409 14.2966C20.3409 14.2311 20.3081 14.1753 20.2615 14.152L17.8149 12.0941C17.7934 12.0762 17.7681 12.0665 17.7421 12.0665C17.7161 12.0665 17.6907 12.0762 17.6693 12.0941L15.2036 14.1679C15.1813 14.1869 15.1644 14.2141 15.1556 14.2456C15.1468 14.277 15.1464 14.311 15.1545 14.3428C15.1626 14.3745 15.1788 14.4022 15.2007 14.422C15.2226 14.4417 15.2491 14.4525 15.2764 14.4526H15.7849L15.7853 18.9325C15.7878 19.4934 16.1577 19.9515 16.6279 19.9655C16.633 19.9663 16.6382 19.9665 16.6434 19.9665H20.2979C20.3315 19.9658 20.3619 19.9494 20.3845 19.9231L20.3847 19.9228C20.3851 19.9223 20.3857 19.9219 20.3857 19.9216C20.3859 19.9214 20.3861 19.9214 20.3862 19.9209L20.3864 19.9207L20.3866 19.9204L20.3868 19.9202L20.387 19.92L20.3872 19.9197L20.3874 19.9195C20.388 19.9193 20.3876 19.9193 20.3878 19.919L20.388 19.9188L20.3882 19.9185L20.3884 19.9183C20.4106 19.8903 20.4243 19.8525 20.4245 19.8106V19.8082C20.424 19.7786 20.4167 19.7498 20.4033 19.7251C20.39 19.7004 20.3711 19.6807 20.349 19.6685Z" fill="#F2D864"/>
</svg>
