<svg width="15" height="20" viewBox="0 0 15 20" fill="none" xmlns="http://www.w3.org/2000/svg">
<g clip-path="url(#clip0_5_2)">
<mask id="mask0_5_2" style="mask-type:luminance" maskUnits="userSpaceOnUse" x="0" y="0" width="15" height="20">
<path d="M15 0H0V20H15V0Z" fill="white"/>
</mask>
<g mask="url(#mask0_5_2)">
<path d="M7.5 10C7.5 9.11595 7.89509 8.26813 8.59836 7.643C9.30162 7.01788 10.2554 6.66669 11.25 6.66669C12.2446 6.66669 13.1984 7.01788 13.9016 7.643C14.6049 8.26813 15 9.11595 15 10C15 10.8841 14.6049 11.7319 13.9016 12.357C13.1984 12.9822 12.2446 13.3334 11.25 13.3334C10.2554 13.3334 9.30162 12.9822 8.59836 12.357C7.89509 11.7319 7.5 10.8841 7.5 10Z" fill="#1ABCFE"/>
<path d="M0 16.6666C0 15.7826 0.395088 14.9348 1.09835 14.3096C1.80161 13.6845 2.75544 13.3333 3.75 13.3333H7.5V16.6666C7.5 17.5507 7.10491 18.3985 6.40165 19.0237C5.69838 19.6488 4.74458 20 3.75 20C2.75544 20 1.80161 19.6488 1.09835 19.0237C0.395088 18.3985 0 17.5507 0 16.6666Z" fill="#0ACF83"/>
<path d="M7.5 0V6.66667H11.25C12.2446 6.66667 13.1984 6.31547 13.9016 5.69035C14.6049 5.06523 15 4.2174 15 3.33333C15 2.44928 14.6049 1.60143 13.9016 0.976312C13.1984 0.351189 12.2446 0 11.25 0H7.5Z" fill="#FF7262"/>
<path d="M0 3.33333C0 4.2174 0.395088 5.06523 1.09835 5.69035C1.80161 6.31547 2.75544 6.66667 3.75 6.66667H7.5V0H3.75C2.75544 0 1.80161 0.351189 1.09835 0.976312C0.395088 1.60143 0 2.44928 0 3.33333Z" fill="#F24E1E"/>
<path d="M0 10C0 10.8841 0.395088 11.7319 1.09835 12.357C1.80161 12.9822 2.75544 13.3334 3.75 13.3334H7.5V6.66669H3.75C2.75544 6.66669 1.80161 7.01788 1.09835 7.643C0.395088 8.26813 0 9.11595 0 10Z" fill="#A259FF"/>
</g>
</g>
<defs>
<clipPath id="clip0_5_2">
<rect width="15" height="20" fill="white"/>
</clipPath>
</defs>
</svg>
