<svg width="104" height="36" viewBox="0 0 104 36" fill="none" xmlns="http://www.w3.org/2000/svg">
<path d="M31.24 31.04C29.5067 31.04 28.2667 30.5467 27.52 29.56C26.7733 28.5467 26.4 27.0667 26.4 25.12C26.4 23.1733 27.0267 18.6933 28.28 11.68H27.64C26.0133 13.8133 24.6667 16.36 23.6 19.32C22.5333 22.28 21.88 24.9467 21.64 27.32C20.3333 28.5467 18.8267 29.16 17.12 29.16C16.4267 29.16 15.8133 28.92 15.28 28.44C14.7733 27.9333 14.2667 27.0667 13.76 25.84C12.7733 23.36 12.0667 18.64 11.64 11.68H11C9.69333 17.4133 9.04 21.4533 9.04 23.8C9.04 26.1467 9.44 27.96 10.24 29.24C8.64 30.44 6.97333 31.04 5.24 31.04C3.50667 31.04 2.26667 30.5467 1.52 29.56C0.773333 28.5467 0.4 27.0533 0.4 25.08C0.4 23.08 1.24 17.44 2.92 8.16L0.8 3.88C3.81333 1.93333 6.56 0.96 9.04 0.96C10.1333 0.96 11.0533 1.08 11.8 1.32C12.5733 1.53333 13.3067 1.96 14 2.6C14.72 3.24 15.3067 4.13333 15.76 5.28C16.8 7.86667 17.5467 11.64 18 16.6H18.48C19.8667 12.52 21.7867 9.01333 24.24 6.08C25.5733 4.50667 27.16 3.26667 29 2.36C30.8667 1.45333 32.88 0.999999 35.04 0.999999C37.0933 0.999999 38.12 2.24 38.12 4.72C38.12 5.54667 37.6 8.62667 36.56 13.96C35.5467 19.2667 35.04 22.4267 35.04 23.44C35.04 26.0267 35.44 27.96 36.24 29.24C34.64 30.44 32.9733 31.04 31.24 31.04Z" fill="#4A8B64"/>
<path d="M46.6453 24.2C46.6453 22.5467 47.2053 18.92 48.3253 13.32C46.512 13.32 44.952 12.8133 43.6453 11.8C42.3653 10.7867 41.592 9.21333 41.3253 7.08C43.4853 6.65333 45.5253 6.01333 47.4453 5.16C49.392 4.28 51.0186 3.53333 52.3253 2.92C53.632 2.30666 54.8053 2 55.8453 2C57.7386 2 58.6853 3.06667 58.6853 5.2C58.6853 6.50667 58.1653 9.54667 57.1253 14.32C56.0853 19.0667 55.5653 22.4667 55.5653 24.52C55.5653 26.5467 55.952 28.2133 56.7253 29.52C54.9386 30.5067 53.232 31 51.6053 31C48.2986 31 46.6453 28.7333 46.6453 24.2ZM73.8188 23.16C70.8054 23.16 68.5254 22.3467 66.9788 20.72C65.4588 19.0933 64.6988 17.0933 64.6988 14.72C64.6988 12.3467 65.3788 10.1733 66.7388 8.2C68.1254 6.2 69.9254 4.66667 72.1388 3.6C74.3788 2.53333 76.8988 2 79.6988 2C82.5254 2 84.8588 2.84 86.6988 4.52C88.5388 6.2 89.4588 8.56 89.4588 11.6C89.4588 14.6133 88.8854 17.6133 87.7388 20.6C86.6188 23.56 85.1788 26.1333 83.4188 28.32C81.6854 30.5067 79.7388 32.28 77.5788 33.64C75.4188 35.0267 73.3521 35.72 71.3788 35.72C68.1788 35.72 66.2054 34.3867 65.4588 31.72C70.6588 30.28 74.7254 27.28 77.6588 22.72C76.3788 23.0133 75.0988 23.16 73.8188 23.16ZM81.0588 11.8C81.0588 10.44 80.8054 9.29333 80.2988 8.36C79.7921 7.42667 79.0054 6.96 77.9388 6.96C76.8721 6.96 75.8854 7.58667 74.9788 8.84C74.0721 10.0667 73.6188 11.76 73.6188 13.92C73.6188 15.2267 73.8588 16.32 74.3388 17.2C74.8454 18.08 75.6321 18.52 76.6988 18.52C77.7654 18.52 78.7521 17.92 79.6588 16.72C80.5921 15.4933 81.0588 13.8533 81.0588 11.8Z" fill="#E0C695"/>
<path d="M98.4625 31C97.1558 31 96.0892 30.6 95.2625 29.8C94.4625 28.9733 94.0625 27.9333 94.0625 26.68C94.0625 25.4 94.5558 24.2533 95.5425 23.24C96.5292 22.2267 97.6758 21.72 98.9825 21.72C100.289 21.72 101.343 22.1333 102.143 22.96C102.969 23.76 103.383 24.8 103.383 26.08C103.383 27.3333 102.889 28.4667 101.903 29.48C100.916 30.4933 99.7692 31 98.4625 31Z" fill="#4A8B64"/>
</svg>
