<svg width="31" height="14" viewBox="0 0 31 14" fill="none" xmlns="http://www.w3.org/2000/svg">
<path d="M6.328 0.296C6.60533 0.296 6.89333 0.354666 7.192 0.471999C7.49067 0.589333 7.77867 0.738666 8.056 0.919999H8.04C8.31733 1.12267 8.53067 1.38933 8.68 1.72C8.82933 2.04 8.904 2.41333 8.904 2.84V10.44C8.904 11.304 8.616 11.9493 8.04 12.376C7.76267 12.5787 7.47467 12.7387 7.176 12.856C6.888 12.9627 6.60533 13.016 6.328 13.016H2.84C2.56267 13.016 2.27467 12.9627 1.976 12.856C1.688 12.7387 1.40533 12.5787 1.128 12.376C0.850667 12.1627 0.637333 11.9013 0.488 11.592C0.338667 11.272 0.264 10.888 0.264 10.44V2.84C0.264 2.41333 0.338667 2.04 0.488 1.72C0.637333 1.38933 0.850667 1.12267 1.128 0.919999H1.112C1.38933 0.738666 1.67733 0.589333 1.976 0.471999C2.27467 0.354666 2.56267 0.296 2.84 0.296H6.328ZM5.928 11.4C6.32267 11.4 6.6 11.288 6.76 11.064C6.92 10.84 7 10.5893 7 10.312V2.984C7 2.71733 6.92 2.472 6.76 2.248C6.6 2.024 6.32267 1.912 5.928 1.912H3.24C2.84533 1.912 2.568 2.024 2.408 2.248C2.248 2.472 2.168 2.71733 2.168 2.984V10.312C2.168 10.5893 2.248 10.84 2.408 11.064C2.568 11.288 2.84533 11.4 3.24 11.4H5.928ZM17.3749 0.296C17.6522 0.296 17.9402 0.354666 18.2389 0.471999C18.5375 0.589333 18.8255 0.738666 19.1029 0.919999H19.0869C19.3642 1.12267 19.5775 1.38933 19.7269 1.72C19.8762 2.04 19.9509 2.41333 19.9509 2.84V10.44C19.9509 11.304 19.6629 11.9493 19.0869 12.376C18.8095 12.5787 18.5215 12.7387 18.2229 12.856C17.9349 12.9627 17.6522 13.016 17.3749 13.016H13.8869C13.6095 13.016 13.3215 12.9627 13.0229 12.856C12.7349 12.7387 12.4522 12.5787 12.1749 12.376C11.8975 12.1627 11.6842 11.9013 11.5349 11.592C11.3855 11.272 11.3109 10.888 11.3109 10.44V2.84C11.3109 2.41333 11.3855 2.04 11.5349 1.72C11.6842 1.38933 11.8975 1.12267 12.1749 0.919999H12.1589C12.4362 0.738666 12.7242 0.589333 13.0229 0.471999C13.3215 0.354666 13.6095 0.296 13.8869 0.296H17.3749ZM16.9749 11.4C17.3695 11.4 17.6469 11.288 17.8069 11.064C17.9669 10.84 18.0469 10.5893 18.0469 10.312V2.984C18.0469 2.71733 17.9669 2.472 17.8069 2.248C17.6469 2.024 17.3695 1.912 16.9749 1.912H14.2869C13.8922 1.912 13.6149 2.024 13.4549 2.248C13.2949 2.472 13.2149 2.71733 13.2149 2.984V10.312C13.2149 10.5893 13.2949 10.84 13.4549 11.064C13.6149 11.288 13.8922 11.4 14.2869 11.4H16.9749ZM25.8458 8.296C25.6644 8.296 25.5204 8.22667 25.4138 8.088C25.3178 7.93867 25.2698 7.74133 25.2698 7.496C25.2698 6.952 25.4938 6.68 25.9418 6.68H27.6378C28.0324 6.68 28.3098 6.568 28.4698 6.344C28.6404 6.12 28.7258 5.87467 28.7258 5.608V2.984C28.7258 2.71733 28.6404 2.472 28.4698 2.248C28.3098 2.024 28.0324 1.912 27.6378 1.912H24.2778V12.36C24.2778 12.872 23.9578 13.128 23.3178 13.128C22.6991 13.128 22.3898 12.872 22.3898 12.36V1.256C22.3898 0.871999 22.4858 0.615999 22.6778 0.487999C22.8698 0.359999 23.1044 0.296 23.3818 0.296H28.0538C28.3204 0.296 28.6031 0.354666 28.9018 0.471999C29.2004 0.589333 29.4884 0.738666 29.7658 0.919999H29.7498C30.0271 1.12267 30.2404 1.38933 30.3898 1.72C30.5391 2.04 30.6138 2.41333 30.6138 2.84V5.736C30.6138 6.6 30.3258 7.24533 29.7498 7.672C29.4724 7.87467 29.1898 8.02933 28.9018 8.136C28.6138 8.24267 28.3311 8.296 28.0538 8.296H25.8458Z" fill="var(--third)"/>
</svg>
